{"title":"Playback 2012 PPV READNFO XViD - HOPE","uid":7007832,"size":747714514,"categoryP":"video","categoryS":"movies","magnet":"?xt=urn:btih:4b0749aa056401fd87cddd3eca02a9b12ef79218&amp;dn=Playback+2012+PPV+READNFO+XViD+-+HOPE&amp;tr=udp%3A%2F%2Ftracker.openbittorrent.com%3A80&amp;tr=udp%3A%2F%2Fopen.demonii.com%3A1337&amp;tr=udp%3A%2F%2Ftracker.coppersurfer.tk%3A6969&amp;tr=udp%3A%2F%2Fexodus.desync.com%3A6969","seeders":2,"leechers":0,"uploader":"LegendET","files":4,"time":1328335247,"description":"\n\n\n[center]\n\n\n\n\n\nPlot: \nA cop investigates the case of a missing local teen, though he discovers a dark secret that has been unleashed in his town, and an evil spirit that will stop at nothing to find its heir. \n\nIMDB: \nwww.imdb.com/title/tt1682940/\n\nInformation:\nFormat                           : AVI\nFormat/Info                      : Audio Video Interleave\nFile size                        : 702 MiB\nDuration                         : 1h 38mn\nOverall bit rate                 : 999 Kbps\n\nVideo\nID                               : 0\nFormat                           : MPEG-4 Visual\nFormat profile                   : Advanced Simple@L5\nFormat settings, BVOP            : 2\nFormat settings, QPel            : No\nFormat settings, GMC             : No warppoints\nFormat settings, Matrix          : Default (H.263)\nMuxing mode                      : Packed bitstream\nCodec ID                         : XVID\nCodec ID/Hint                    : XviD\nDuration                         : 1h 38mn\nBit rate                         : 864 Kbps\nWidth                            : 500 pixels\nHeight                           : 272 pixels\nDisplay aspect ratio             : 16:9\nFrame rate                       : 29.970 fps\nColor space                      : YUV\nChroma subsampling               : 4:2:0\nBit depth                        : 8 bits\nScan type                        : Progressive\nCompression mode                 : Lossy\nBits/(Pixel*Frame)               : 0.212\nStream size                      : 607 MiB (86%)\nWriting library                  : XviD 64\n\nAudio\nID                               : 1\nFormat                           : MPEG Audio\nFormat version                   : Version 1\nFormat profile                   : Layer 3\nMode                             : Joint stereo\nMode extension                   : MS Stereo\nCodec ID                         : 55\nCodec ID/Hint                    : MP3\nDuration                         : 1h 38mn\nBit rate mode                    : Constant\nBit rate                         : 128 Kbps\nChannel(s)                       : 2 channels\nSampling rate                    : 48.0 KHz\nCompression mode                 : Lossy\nStream size                      : 89.9 MiB (13%)\nAlignment                        : Aligned on interleaves\nInterleave, duration             : 133 ms (4.00 video frames)\nInterleave, preload duration     : 216 ms\n\nScreene:\n\n\n","torrent":{"xt":"urn:btih:4b0749aa056401fd87cddd3eca02a9b12ef79218","amp;dn":"Playback+2012+PPV+READNFO+XViD+-+HOPE","amp;tr":["udp%3A%2F%2Ftracker.openbittorrent.com%3A80","udp%3A%2F%2Fopen.demonii.com%3A1337","udp%3A%2F%2Ftracker.coppersurfer.tk%3A6969","udp%3A%2F%2Fexodus.desync.com%3A6969"],"infoHash":"4b0749aa056401fd87cddd3eca02a9b12ef79218","infoHashBuffer":{"type":"Buffer","data":[75,7,73,170,5,100,1,253,135,205,221,62,202,2,169,177,46,247,146,24]},"announce":[],"urlList":[]}}